#define sawdn_width 31
#define sawdn_height 19
static char sawdn_bits[] = {
  0x00, 0x00, 0x00, 0x00, 0x18, 0x00, 0x03, 0x00, 0x28, 0x00, 0x05, 0x00, 
  0x28, 0x00, 0x05, 0x00, 0x48, 0x00, 0x09, 0x00, 0x88, 0x00, 0x11, 0x00, 
  0x88, 0x00, 0x11, 0x00, 0x08, 0x01, 0x21, 0x00, 0x08, 0x02, 0x41, 0x00, 
  0xFF, 0xFF, 0xFF, 0x7F, 0x08, 0x04, 0x81, 0x00, 0x08, 0x08, 0x01, 0x01, 
  0x08, 0x08, 0x01, 0x01, 0x08, 0x10, 0x01, 0x02, 0x08, 0x20, 0x01, 0x04, 
  0x08, 0x20, 0x01, 0x04, 0x08, 0x40, 0x01, 0x08, 0x08, 0x80, 0x01, 0x10, 
  0x00, 0x00, 0x00, 0x00, };
